<?xml version="1.0" ?><!-- Uploaded to: SVG Repo, www.svgrepo.com, Generator: SVG Repo Mixer Tools -->
<svg fill="#000000" width="800px" height="800px" viewBox="0 0 96 96" id="Layer_1_1_" version="1.1" xml:space="preserve" xmlns="http://www.w3.org/2000/svg" xmlns:xlink="http://www.w3.org/1999/xlink"><path d="M35,15c0,7.18,5.82,13,13,13s13-5.82,13-13S55.18,2,48,2S35,7.82,35,15z M48,21c-3.103,0-5.036-3.366-3.473-6.046L48,9  l3.473,5.954C53.036,17.634,51.103,21,48,21z"/><path d="M81,2c-7.18,0-13,5.82-13,13s5.82,13,13,13s13-5.82,13-13S88.18,2,81,2z M87,18H77c-1.657,0-3-1.343-3-3s1.343-3,3-3  c0.36,0,0.7,0.074,1.019,0.19C78.015,12.126,78,12.065,78,12c0-1.657,1.343-3,3-3s3,1.343,3,3c1.311,0,2.414,0.846,2.822,2.018  C86.881,14.013,86.939,14,87,14c1.105,0,2,0.895,2,2C89,17.105,88.105,18,87,18z"/><path d="M28,64v22h40V64c0-0.552-0.448-1-1-1H29C28.448,63,28,63.448,28,64z M36,67c6.237,0,11.326,4.861,11.717,10.999l0.566-0.001  C48.675,71.861,53.763,67,60,67v0.245c0,6.239-4.864,11.328-11.004,11.717L49,83.998L47,84l-0.004-5.038  C40.859,78.569,36,73.481,36,67.245V67z"/><path d="M28,93c0,0.552,0.448,1,1,1h38c0.552,0,1-0.448,1-1v-5H28V93z M44,90h8v2h-8V90z"/><polygon points="83,87 83,78 87,79 81,64 75,79 79,78 79,87 "/><path d="M48,33c-7.18,0-13,5.82-13,13s5.82,13,13,13s13-5.82,13-13S55.18,33,48,33z M49,51h-2v-2h2V51z M49,47h-2v-2h2V47z M56,51  h-4v-8h-8v8h-4v-9l8-5l8,5V51z"/><path d="M15,59c7.18,0,13-5.82,13-13s-5.82-13-13-13S2,38.82,2,46S7.82,59,15,59z M5,45h2v-2H6v-2h4v2H9v2h2v-1h2v-1  c0-1.105,0.895-2,2-2s2,0.895,2,2v1h2v1h2v-2h-1v-2h4v2h-1v2h2v2h-6v1.184c1.161,0.414,2,1.514,2,2.816v2h-2v-2c0-0.551-0.449-1-1-1  h-2v3h-2v-3h-2c-0.551,0-1,0.449-1,1v2H9v-2c0-1.302,0.839-2.402,2-2.816V47H5V45z"/><path d="M15,28c7.18,0,13-5.82,13-13S22.18,2,15,2S2,7.82,2,15S7.82,28,15,28z M12,15.023V6h6v9.023c1.208,0.913,2,2.347,2,3.977  c0,2.761-2.239,5-5,5s-5-2.239-5-5C10,17.37,10.792,15.935,12,15.023z"/><path d="M15,22c1.657,0,3-1.343,3-3c0-1.304-0.837-2.403-2-2.816V9h-2v7.184c-1.163,0.413-2,1.512-2,2.816  C12,20.657,13.343,22,15,22z"/><rect height="2" width="2" x="14" y="46"/><path d="M80,33c-7.18,0-13,5.82-13,13s5.82,13,13,13s13-5.82,13-13S87.18,33,80,33z M83.707,48.707  c-0.201,0.202-0.48,0.312-0.762,0.292c-0.284-0.016-0.548-0.152-0.726-0.374l-3.354-4.192l-6.214,5.327l-1.302-1.519l7-6  c0.206-0.176,0.473-0.265,0.745-0.236c0.27,0.025,0.518,0.159,0.687,0.371l3.302,4.127l4.21-4.21l1.414,1.414L83.707,48.707z"/></svg>