<?xml version="1.0" ?><!-- Uploaded to: SVG Repo, www.svgrepo.com, Generator: SVG Repo Mixer Tools -->
<svg fill="#000000" width="800px" height="800px" viewBox="0 0 96 96" id="Layer_1_1_" version="1.1" xml:space="preserve" xmlns="http://www.w3.org/2000/svg" xmlns:xlink="http://www.w3.org/1999/xlink"><path d="M89.446,3.501c-0.897-0.619-1.832-1.11-2.657-1.229c-2.44-0.351-4.919-0.345-7.37,0.025l-4.475,0.675l1.42,2.607L74,7.144  l2.602,1.824l-2.365,1.565l2.602,1.824l-1.655,2.869l3.075-0.262l0.238,3.389l2.365-1.565l0.238,3.389l2.365-1.565L83.703,22  l3.231-3.912l-0.156,3.65l3.231-3.912l1.026,2.867L94,16.007l0.089-7.39C92.869,6.583,91.324,4.798,89.446,3.501z"/><path d="M70.208,45.213c1.347,0.831,3.09,0.374,3.893-1.021c0.803-1.395,0.361-3.2-0.986-4.031c-1.347-0.831-3.09-0.374-3.893,1.021  C68.42,42.577,68.861,44.382,70.208,45.213z"/><path d="M67.678,49.376l0.35,1.431l1.382-0.362c1.28-0.336,2.119-1.515,2.126-2.823c-0.831-0.021-1.647-0.255-2.378-0.706  c-0.217-0.134-0.407-0.295-0.595-0.457C67.786,47.161,67.407,48.268,67.678,49.376z"/><circle cx="26" cy="23" r="3"/><path d="M50,22v-5c0-0.304-0.138-0.591-0.375-0.781l-5-4c-0.417-0.334-1.024-0.28-1.377,0.122l-2.563,2.929L38.7,13.286  C38.887,12.895,39,12.462,39,12c0-1.657-1.343-3-3-3s-3,1.343-3,3c0,0.498,0.133,0.961,0.348,1.375l-4.712,5.395  c0.57,0.357,1.065,0.818,1.451,1.367l4.681-5.407C35.144,14.9,35.559,15,36,15c0.462,0,0.895-0.113,1.286-0.3l2.079,2.079  l-3.117,3.562c-0.347,0.396-0.327,0.994,0.045,1.366l4,4C40.48,25.895,40.735,26,41,26h5v-2h-4.586l-3.045-3.045l2.414-2.758  l1.511,1.511l1.414-1.414l-1.605-1.605l2.021-2.309L48,17.48V22H50z"/><path d="M23.003,26.977l-1.769,7.077C21.485,34.022,21.74,34,22,34c1.201,0,2.319,0.358,3.258,0.969l1.771-7.078  C26.697,27.961,26.353,28,26,28C24.872,28,23.841,27.61,23.003,26.977z"/><circle cx="22" cy="40" r="4"/><path d="M16.957,14.805c2.351-3.526,2.351-8.083,0-11.609l-1.664,1.109c1.902,2.853,1.902,6.538,0,9.391L16.957,14.805z"/><path d="M11.77,12.947c1.236-2.472,1.236-5.423,0-7.895L9.98,5.947c0.956,1.912,0.956,4.194,0,6.105L11.77,12.947z"/><path d="M22.367,16.447c2.331-4.663,2.331-10.231,0-14.895l-1.789,0.895c2.051,4.103,2.051,9.002,0,13.105L22.367,16.447z"/><path d="M49.45,55.01c-2.54,0.526-4.389,2.524-4.849,4.907c-0.091,0.008-0.181,0.029-0.272,0.038  C44.616,57.682,43.63,55.344,41.6,54c-0.7,1.06-1.03,2.24-1.03,3.42c0,0.2,0.02,0.4,0.03,0.62c0.02,0,0.02,0.01,0.02,0.01v0.02  c0.086,0.865,0.361,1.705,0.803,2.465c-0.019,0.006-0.039,0.009-0.058,0.015c-1.357-1.999-3.833-3.098-6.365-2.58  c0.364,1.811,1.486,3.257,2.97,4.114c-0.424,0.257-0.841,0.526-1.24,0.826l-0.18,0.13c-1.87,1.41-2.08,4.06-0.45,5.73L43.17,76h5.59  l3.99-10.5c0.82-2.15-0.46-4.51-2.76-5.1l-0.22-0.05c-0.498-0.129-1.001-0.222-1.504-0.3C49.337,58.669,49.83,56.853,49.45,55.01z   M40,67h-2v-2h2V67z M42,69v-2h2v2H42z M46,73h-2v-2h2V73z M49,70h-2v-2h2V70z M49,63v2h-2v-2H49z"/><path d="M58.4,64.78l-4.67,10.4c-0.12,0.27-0.19,0.55-0.22,0.82h18.01c0.11-0.47,0.14-0.98,0.07-1.5l-0.03-0.22  c-0.12-0.87-0.32-1.72-0.58-2.54c-0.005-0.017-0.013-0.032-0.019-0.049c1.737,0.566,3.692,0.366,5.329-0.724  c-1.099-1.665-2.858-2.607-4.693-2.75c0.486-0.221,0.946-0.493,1.358-0.83l0.014-0.014c0,0,0.007-0.007,0.021,0.007  c0.163-0.148,0.318-0.276,0.46-0.417c0.834-0.834,1.435-1.902,1.69-3.147c-2.751-0.559-5.459,0.792-6.718,3.168l0.048,0.07  c-0.155-0.198-0.33-0.38-0.494-0.571l0.206,0.204c1.952-2.036,2.319-5.233,0.693-7.707c-1.945,1.28-2.935,3.472-2.772,5.643  l0.163,0.162c-0.663-0.56-1.357-1.087-2.117-1.535l-0.19-0.12C61.91,61.92,59.34,62.69,58.4,64.78z M67.707,70.293l1.414,1.414  l-1.414,1.414l-1.414-1.414L67.707,70.293z M59,71.707l-1.414-1.414L59,68.879l1.414,1.414L59,71.707z M64.414,73.293L63,74.707  l-1.414-1.414L63,71.879L64.414,73.293z M63.414,66.293L62,67.707l-1.414-1.414L62,64.879L63.414,66.293z"/><path d="M92.067,34.383c0.316-1.96,0.616-5.699,0.894-7.201c0.369-1.998,0.708-4.028,1.006-6.035l-1.979-0.294  c-0.295,1.983-0.629,3.991-0.994,5.965c-0.204,1.102-0.42,3.439-0.645,5.366C86.45,27.731,81.315,25.078,76.015,25  c-0.08-0.001-0.159-0.001-0.238-0.001c-6.548,0-11.911,3.993-13.414,5.231c-1.053,0.871-2.021,1.838-2.898,2.892  c0.097-0.747,0.073-1.521-0.123-2.301c-2.368,0.597-4.078,2.485-4.554,4.734c-0.083-0.039-0.16-0.088-0.243-0.126  c0.365-2.407-0.715-4.916-2.944-6.258c-0.973,1.62-1.107,3.504-0.547,5.167c-0.505-0.095-1.014-0.175-1.531-0.22l-0.226-0.02  c-2.367-0.205-4.354,1.595-4.295,3.892l0.29,11.395c0.049,1.943,2.197,3.207,3.966,2.333l10.372-5.122  c2.09-1.032,2.77-3.601,1.47-5.554l-0.124-0.186c-0.28-0.42-0.587-0.816-0.906-1.203c1.69-0.313,3.235-1.307,4.182-2.9  c-1.395-0.836-2.981-1.059-4.449-0.752c1.086-1.597,2.367-3.017,3.833-4.229c1.387-1.142,6.394-4.849,12.35-4.772  c5.64,0.083,11.111,3.468,14.779,9h-1.423c-1.417-1.544-3.192-2.586-5.144-2.979c-3.381-0.678-6.174,0.811-6.705,1.119  c-1.358,0.802-2.517,1.959-3.349,3.347l1.715,1.029c0.662-1.103,1.579-2.021,2.645-2.65c0.254-0.148,2.571-1.431,5.3-0.884  c0.872,0.175,1.7,0.527,2.464,1.018H85v18h9V42h-6v-2h6v-4h-0.879C92.788,35.441,92.432,34.906,92.067,34.383z M47.096,43.349  l0.663-1.887l1.887,0.663l-0.663,1.887L47.096,43.349z M50.488,48.78l-1.887-0.663l0.663-1.887l1.887,0.663L50.488,48.78z   M50.64,39.295l-1.887-0.663l0.663-1.887l1.887,0.663L50.64,39.295z M54.032,44.726l-1.887-0.663l0.663-1.887l1.887,0.663  L54.032,44.726z M54.746,39.677l-1.887-0.663l0.663-1.887l1.887,0.663L54.746,39.677z M58.469,44.165l-1.887-0.663l0.663-1.887  l1.887,0.663L58.469,44.165z M57.377,37.091c-0.016-0.012-0.033-0.021-0.049-0.033c0.102-0.086,0.195-0.182,0.291-0.274l0.127,0.072  C57.622,36.935,57.494,37.003,57.377,37.091z M92,49v2h-4v-2H92z"/><rect height="4" width="9" x="35" y="84"/><rect height="4" width="9" x="46" y="84"/><rect height="4" width="9" x="24" y="84"/><rect height="4" width="9" x="78" y="84"/><rect height="4" width="9" x="57" y="84"/><rect height="4" width="8" x="68" y="84"/><rect height="4" width="9" x="57" y="90"/><rect height="4" width="8" x="68" y="90"/><rect height="4" width="9" x="78" y="90"/><rect height="4" width="9" x="46" y="90"/><rect height="4" width="9" x="24" y="90"/><rect height="4" width="9" x="35" y="90"/><rect height="4" width="73" x="19" y="78"/><rect height="6" width="10" x="4" y="72"/><path d="M2,50v10c2.761,0,5-2.239,5-5S4.761,50,2,50z"/><path d="M2,70h20V46c-3.309,0-6-2.691-6-6H2v6h13v18H2V70z"/><path d="M64.775,39.825l-1.382,0.362l0.35,1.431c0.365,1.491,1.767,2.406,3.217,2.164c-0.243-1.083-0.121-2.243,0.391-3.292  C66.679,39.859,65.722,39.577,64.775,39.825z"/><path d="M70.497,37.892c0.779-0.197,1.57-0.172,2.327,0.021c0.255-1.203-0.23-2.498-1.305-3.161L70.3,34l-0.727,1.263  c-0.54,0.939-0.508,2.079-0.012,2.975C69.857,38.092,70.17,37.975,70.497,37.892z"/><path d="M79.273,41.532L80,40.269l-1.22-0.753c-1.043-0.643-2.328-0.501-3.226,0.243c0.657,0.918,0.965,2.044,0.914,3.173  C77.559,43.074,78.682,42.56,79.273,41.532z"/><path d="M74.048,46.962c0.456,1.46,1.92,2.325,3.389,1.95l1.37-0.37l-0.338-1.423c-0.316-1.253-1.341-2.098-2.511-2.203  c-0.045,0.09-0.072,0.185-0.123,0.273C75.398,45.948,74.776,46.54,74.048,46.962z"/><path d="M2,27v11h8v-7c0-2.209-1.791-4-4-4V12h2V6H2v6h2v15H2z"/><rect height="14" width="6" x="6" y="80"/></svg>