<?xml version="1.0" ?><!-- Uploaded to: SVG Repo, www.svgrepo.com, Generator: SVG Repo Mixer Tools -->
<svg fill="#000000" width="800px" height="800px" viewBox="0 0 96 96" id="Layer_1_1_" version="1.1" xml:space="preserve" xmlns="http://www.w3.org/2000/svg" xmlns:xlink="http://www.w3.org/1999/xlink"><path d="M32,32h3c0-6.065,4.935-11,11-11s11,4.935,11,11h4.589c1.19-2.928,4.061-5,7.411-5s6.221,2.072,7.411,5H80l-7-15H38L32,32z"/><path d="M44,2l-0.692,3H54.77c-0.453-1.77-0.789-3-0.789-3H44z"/><path d="M41,15h16c-0.345-2.207-1.072-5.353-1.727-8H42.846L41,15z"/><path d="M55,32c0-4.971-4.029-9-9-9s-9,4.029-9,9c0,4.971,4.029,9,9,9S55,36.971,55,32z M42,32c0-2.209,1.791-4,4-4s4,1.791,4,4  c0,2.209-1.791,4-4,4S42,34.209,42,32z"/><polygon points="71,6 68,4 65,8 65,13 69,13 69,9 "/><path d="M33.919,54.722l1.961-0.393c-0.831-4.156-4.053-7.378-8.209-8.209l-0.392,1.961C30.641,48.753,33.247,51.359,33.919,54.722z  "/><path d="M29.001,57.316l1.897-0.633c-0.874-2.621-2.96-4.708-5.582-5.582l-0.633,1.896C26.711,53.675,28.325,55.289,29.001,57.316z"/><path d="M40.867,51.665c-1.648-4.946-5.585-8.883-10.532-10.531l-0.633,1.896c4.353,1.451,7.817,4.915,9.267,9.268L40.867,51.665z"/><path d="M25.771,22.985c0.31,0.072,0.627,0.109,0.951,0.109c1.501,0,3.156-0.78,4.935-2.329l-1.313-1.508  c-1.649,1.437-3.033,2.036-4.114,1.78c-0.519-0.122-0.926-0.431-1.397-0.788c-0.662-0.503-1.486-1.128-2.749-1.234  c-1.209-0.105-2.448,0.297-3.671,1.188l1.177,1.617c0.823-0.599,1.601-0.865,2.328-0.812c0.683,0.058,1.134,0.4,1.707,0.835  C24.193,22.275,24.839,22.767,25.771,22.985z"/><path d="M21.343,27.162c-1.649,1.437-3.033,2.037-4.114,1.78c-0.519-0.122-0.926-0.431-1.397-0.788  c-0.662-0.503-1.486-1.128-2.749-1.234c-1.205-0.106-2.448,0.298-3.671,1.188l1.177,1.617c0.823-0.599,1.601-0.865,2.328-0.812  c0.683,0.058,1.134,0.4,1.707,0.835c0.57,0.433,1.217,0.924,2.148,1.143c0.31,0.072,0.627,0.109,0.951,0.109  c1.501,0,3.156-0.78,4.935-2.329L21.343,27.162z"/><path d="M81,81.899v-3.677c-0.359-0.21-0.649-0.523-0.821-0.905l-3.095,0.516C77.428,79.866,78.99,81.489,81,81.899z"/><path d="M60.631,80H55c-0.552,0-1-0.447-1-1c0-2.137,0.832-4.146,2.343-5.657C57.854,71.832,59.863,71,62,71h0.111  C60.81,69.728,60,67.958,60,66c0-0.685,0.108-1.356,0.301-2H57c-0.552,0-1-0.447-1-1v-3c0-0.489,0.354-0.906,0.835-0.986  l5.269-0.878l0.177-1.354c0.005-0.038,0.012-0.076,0.021-0.113C62.842,54.508,64.774,53,67,53s4.158,1.508,4.698,3.668  c0.009,0.037,0.017,0.075,0.021,0.113l0.177,1.354l5.269,0.878C77.646,59.094,78,59.511,78,60v2.763l7.938-7.878  c-8.628-8.005-22.102-7.834-30.494,0.559c-8.353,8.353-8.56,21.737-0.671,30.37L60.631,80z"/><path d="M72,73h-1.476l-5.038,5h9.594C75.033,77.672,75,77.34,75,77c0-0.987,0.208-1.926,0.578-2.779C74.546,73.443,73.308,73,72,73  z"/><path d="M82,72c-2.338,0-4.292,1.62-4.836,3.792l3.292-0.549C80.824,74.794,81.375,74.5,82,74.5s1.176,0.294,1.543,0.743  l3.292,0.549C86.292,73.62,84.338,72,82,72z"/><path d="M83,78.222v3.677c2.01-0.41,3.572-2.033,3.916-4.066l-3.095-0.516C83.649,77.699,83.359,78.012,83,78.222z"/><path d="M76.753,64h-3.054C73.892,64.644,74,65.315,74,66c0,0.263-0.017,0.522-0.046,0.778L76.753,64z"/><path d="M87.341,56.311L72.515,71.025c1.498,0.096,2.919,0.607,4.13,1.477C77.93,70.974,79.852,70,82,70c3.86,0,7,3.141,7,7  s-3.14,7-7,7c-2.785,0-5.189-1.639-6.315-4H63.471l-7.284,7.228c8.633,7.888,22.017,7.681,30.369-0.672  C94.869,78.244,95.114,64.948,87.341,56.311z"/><path d="M57.757,74.757c-0.894,0.895-1.471,2.021-1.674,3.243h6.563l5.038-5H62C60.397,73,58.89,73.624,57.757,74.757z"/><path d="M62.423,64C62.146,64.621,62,65.291,62,66c0,2.757,2.243,5,5,5s5-2.243,5-5c0-0.709-0.146-1.379-0.423-2H62.423z"/><path d="M76,60.847l-5.165-0.86c-0.434-0.072-0.77-0.42-0.827-0.857l-0.264-2.028C69.409,55.861,68.289,55,67,55  s-2.409,0.861-2.744,2.101l-0.264,2.028c-0.057,0.438-0.393,0.785-0.827,0.857L58,60.847V62h18V60.847z"/><rect height="2" width="18" x="74" y="41"/><path d="M11,76.899v-3.677c-0.359-0.21-0.649-0.523-0.821-0.905l-3.095,0.516C7.428,74.866,8.99,76.489,11,76.899z"/><path d="M12,69.5c0.625,0,1.176,0.294,1.543,0.743l3.292,0.549C16.292,68.62,14.338,67,12,67s-4.292,1.62-4.836,3.792l3.292-0.549  C10.824,69.794,11.375,69.5,12,69.5z"/><path d="M3.844,94h16.312C21.174,94,22,93.174,22,92.156V89H2v3.156C2,93.174,2.826,94,3.844,94z M11,90h2v2h-2V90z"/><path d="M13,73.222v3.677c2.01-0.41,3.572-2.033,3.916-4.066l-3.095-0.516C13.649,72.699,13.359,73.012,13,73.222z"/><path d="M2,87h20V61.844C22,60.826,21.174,60,20.156,60H3.844C2.826,60,2,60.826,2,61.844V87z M8,84H6v-2h2V84z M13,84h-2v-2h2V84z   M18,84h-2v-2h2V84z M12,65c3.86,0,7,3.141,7,7s-3.14,7-7,7s-7-3.141-7-7S8.14,65,12,65z"/><path d="M75,35c0-3.314-2.686-6-6-6s-6,2.686-6,6s2.686,6,6,6S75,38.314,75,35z M67,35c0-1.105,0.895-2,2-2s2,0.895,2,2  c0,1.105-0.895,2-2,2S67,36.105,67,35z"/></svg>