<?xml version="1.0" ?><!-- Uploaded to: SVG Repo, www.svgrepo.com, Generator: SVG Repo Mixer Tools -->
<svg fill="#000000" width="800px" height="800px" viewBox="0 0 96 96" id="Layer_1_1_" version="1.1" xml:space="preserve" xmlns="http://www.w3.org/2000/svg" xmlns:xlink="http://www.w3.org/1999/xlink"><path d="M48.05,81H47.95C47.435,73.737,41.394,68,34,68c0,7.394,5.737,13.435,13,13.95V94h2V81.95c7.263-0.515,13-6.555,13-13.95  C54.606,68,48.565,73.737,48.05,81z"/><path d="M17.05,86H16.95C16.435,78.737,10.394,73,3,73c0,7.394,5.737,13.435,13,13.95V94h2v-7.05c7.263-0.515,13-6.555,13-13.95  C23.606,73,17.565,78.737,17.05,86z"/><path d="M80,94v-7.05c7.263-0.515,13-6.555,13-13.95c-7.394,0-13.435,5.737-13.95,13H78.95C78.435,78.737,72.394,73,65,73  c0,7.394,5.737,13.435,13,13.95V94H80z"/><path d="M78,40c2.209,0,4-1.791,4-4c0-1.862-1.278-3.413-3-3.859V16h-2v16.141c-1.722,0.446-3,1.997-3,3.859  C74,38.209,75.791,40,78,40z"/><path d="M57,16h8c1.104,0,2,0.896,2,2v30h27V2H57V16z M74,29.079V8h8v21.079c2.389,1.384,4,3.962,4,6.921c0,4.418-3.582,8-8,8  s-8-3.582-8-8C70,33.041,71.611,30.463,74,29.079z"/><path d="M29,18c0-1.104,0.896-2,2-2h8V2H2v46h27V18z M11.224,38c-2.177,0-3.504-2.394-2.35-4.24l2.35-3.76l2.35,3.76  C14.728,35.606,13.401,38,11.224,38z M21.776,33c-2.177,0-3.504-2.394-2.35-4.24l2.35-3.76l2.35,3.76  C25.279,30.606,23.952,33,21.776,33z M25,20H11c-2.209,0-4-1.791-4-4c0-2.209,1.791-4,4-4c0.353,0,0.689,0.06,1.015,0.146  C12.013,12.096,12,12.05,12,12c0-2.761,2.239-5,5-5s5,2.239,5,5c0,0.047-0.013,0.091-0.014,0.137  c1.071,0.273,1.959,0.975,2.488,1.916C24.645,14.023,24.82,14,25,14c1.657,0,3,1.343,3,3S26.657,20,25,20z"/><path d="M31,60h34V18H31V60z M39,56h-2v-2h2V56z M49,56h-2v-2h2V56z M59,56h-2v-2h2V56z M55,28h6v21h-6V28z M45,37h6v12h-6V37z   M35,32h6v17h-6V32z"/></svg>