<?xml version="1.0" ?><!-- Uploaded to: SVG Repo, www.svgrepo.com, Generator: SVG Repo Mixer Tools -->
<svg fill="#000000" width="800px" height="800px" viewBox="0 0 96 96" id="Layer_1_1_" version="1.1" xml:space="preserve" xmlns="http://www.w3.org/2000/svg" xmlns:xlink="http://www.w3.org/1999/xlink"><path d="M8.961,57.31c-1.173,4.161-1.823,8.44-1.93,12.793c-3.666,1.943-5.734,6.195-4.812,10.68  c1.146,5.575,6.471,13.013,11.895,12.148c0.488-0.078,0.96-0.192,1.414-0.338c0.946-0.305,1.998-0.305,2.944,0  c0.454,0.146,0.926,0.26,1.414,0.338c5.424,0.865,10.749-6.573,11.895-12.148c1.146-5.575-2.323-10.796-7.746-11.661  c-2.142-0.342-4.262,0.058-6.121,0.999c-0.373-2.003-0.361-3.988,0.063-5.906c0.209-0.952,0.523-1.895,0.935-2.802l-1.822-0.825  c-0.469,1.034-0.827,2.11-1.065,3.197c-0.448,2.032-0.482,4.128-0.145,6.239c-1.809-0.867-3.85-1.231-5.913-0.901  c-0.302,0.048-0.597,0.115-0.886,0.189c0.16-3.844,0.738-7.629,1.766-11.315c5.758,1.568,11.964-1.301,14.387-6.922l0,0  c-4.446-1.862-9.395-0.861-12.793,2.147c0.185-0.473,0.362-0.947,0.562-1.416l2.137-5.019c5.889,1.867,12.377-1.009,14.868-6.787v0  c-4.514-1.891-9.548-0.833-12.95,2.284l2.806-6.59c5.903,1.9,12.42-0.975,14.917-6.769c-4.554-1.907-9.639-0.817-13.041,2.363  l1.304-3.063c5.492-3.069,7.572-9.459,4.605-14.891h0c-5.972,2.536-8.667,8.689-6.494,14.225l-1.29,3.029  c-0.005-4.654-2.748-9.062-7.331-10.982c-2.508,5.819-0.05,12.469,5.484,15.319l-2.926,6.873c0.048-4.704-2.704-9.179-7.331-11.117  h0c-2.515,5.835-0.035,12.506,5.532,15.342l-2.129,5c-0.306,0.72-0.59,1.446-0.863,2.176c0.182-4.822-2.58-9.46-7.313-11.442h0  C0.403,47.743,3.083,54.61,8.961,57.31z M17.049,70.606c-0.016,0.01-0.033,0.018-0.049,0.028c-0.008-0.005-0.016-0.009-0.023-0.013  L17.049,70.606z M9.728,72.038l0.545,1.924c-0.577,0.164-1.667,0.596-2.48,1.649c-1.32,1.708-0.914,3.761-0.819,4.156l-1.945,0.467  c-0.186-0.772-0.648-3.476,1.182-5.845C7.373,72.881,8.913,72.269,9.728,72.038z"/><path d="M78,88c0,3.314,2.686,6,6,6s6-2.686,6-6V71H78V88z M85,86c0.552,0,1,0.448,1,1c0,0.552-0.448,1-1,1s-1-0.448-1-1  C84,86.448,84.448,86,85,86z M83,75c0.552,0,1,0.448,1,1c0,0.552-0.448,1-1,1s-1-0.448-1-1C82,75.448,82.448,75,83,75z"/><polygon points="90,63 93,63 93,58 75,58 75,63 78,63 78,69 90,69 "/><path d="M93.664,20H74.336c0.382,1.461,1.07,2.797,1.918,4h15.491C92.593,22.797,93.281,21.461,93.664,20z"/><path d="M77.898,26c2.083,2.193,4.468,3.732,5.781,4.5c-1.312,0.768-3.697,2.307-5.781,4.5h12.205  c-2.083-2.193-4.468-3.732-5.781-4.5c1.312-0.768,3.697-2.307,5.781-4.5H77.898z"/><path d="M74.021,18h19.958c0.077-1.417-0.147-2.765-0.541-4H74.562C74.168,15.235,73.944,16.583,74.021,18z"/><path d="M92.627,12c-0.583-1.181-1.268-2.199-1.88-3H77.253c-0.611,0.801-1.296,1.819-1.88,3H92.627z"/><path d="M93.664,41c-0.382-1.461-1.07-2.797-1.918-4H76.254c-0.848,1.203-1.536,2.539-1.918,4H93.664z"/><path d="M93.979,43H74.021c-0.077,1.417,0.147,2.765,0.541,4h18.875C93.832,45.765,94.056,44.417,93.979,43z"/><path d="M92.627,49H75.373c0.583,1.181,1.268,2.199,1.88,3h13.495C91.359,51.199,92.044,50.181,92.627,49z"/><polygon points="49.721,39.243 48.791,41.733 53.791,43.733 54.741,41.203 "/><polygon points="48.91,50.206 51.521,44.239 49.689,43.437 46.189,51.437 "/><polygon points="70.893,8.889 61.214,5.07 60.479,6.93 64.443,8.494 62.093,14.376 57.609,12.632 53.577,22.594 64.163,26.826   68.235,16.765 63.957,15.101 66.303,9.228 70.158,10.749 "/><polygon points="48,36.374 58.627,40.506 63.406,28.697 52.82,24.465 "/><rect height="2" width="2" x="68" y="2"/><rect height="2" width="2" x="72" y="2"/><rect height="2" width="2" x="76" y="2"/><rect height="2" width="2" x="80" y="2"/><rect height="2" width="2" x="84" y="2"/><rect height="2" width="2" x="84" y="6"/><path d="M66.084,91.206l-0.129-11.568c-0.026-2.331-2.047-4.056-4.37-3.729l-0.221,0.031c-0.559,0.079-1.111,0.191-1.653,0.331  c0.543-1.723,0.335-3.653-0.742-5.272c-2.237,1.476-3.187,4.138-2.605,6.585c-0.021,0.011-0.041,0.026-0.063,0.037  c-0.205-0.952-0.628-1.835-1.235-2.577l-0.014-0.014c0,0-0.007-0.007,0.007-0.021c-0.148-0.163-0.276-0.318-0.417-0.46  c-0.834-0.834-1.902-1.435-3.147-1.69c-0.504,2.48,0.553,4.915,2.505,6.294c-0.077,0.062-0.16,0.115-0.236,0.178  c-2.028-1.503-4.86-1.684-7.106-0.208c1.086,1.651,2.831,2.605,4.661,2.759c-0.354,0.468-0.685,0.957-0.987,1.467l-0.115,0.195  c-1.209,2.045-0.446,4.615,1.65,5.556l10.398,4.67C64.038,94.568,66.106,93.179,66.084,91.206z M61.847,78.219l1.414,1.414  l-1.414,1.415l-1.414-1.414L61.847,78.219z M56.189,79.633l1.414,1.414l-1.414,1.414l-1.414-1.414L56.189,79.633z M54.068,85.997  l-1.414-1.414l1.414-1.415l1.414,1.414L54.068,85.997z M57.604,89.533l-1.414-1.414l1.415-1.415l1.414,1.414L57.604,89.533z   M59.019,83.876l1.414-1.415l1.414,1.414l-1.414,1.415L59.019,83.876z M62.554,87.411l1.414,1.414l-1.414,1.415l-1.414-1.414  L62.554,87.411z"/><path d="M30.73,88.243L32.53,93l7.669-18.596l-5.786-0.334l0.115-1.997l6.477,0.373l2.774-6.727c0.9-3.09-1.26-6.21-4.43-6.39  l-4.466-0.255l0.105-1.328l4.963-2.368l-0.861-1.805l-3.921,1.871l0.259-3.287L33.435,52l-0.263,3.339l-4.129-2.521L28,54.524  l4.996,3.05l-0.109,1.386l-3.677-0.21c-3.125-0.186-5.603,2.596-5.149,5.698l9.627,0.555L33.572,67l-9.042-0.521l0.181,0.743  c2.946,0.565,5.498,2.209,7.206,4.679c1.854,2.683,2.502,5.979,1.823,9.284C33.27,83.471,32.203,85.987,30.73,88.243z"/></svg>