<?xml version="1.0" ?><!-- Uploaded to: SVG Repo, www.svgrepo.com, Generator: SVG Repo Mixer Tools -->
<svg fill="#000000" width="800px" height="800px" viewBox="0 0 96 96" id="Layer_1_1_" version="1.1" xml:space="preserve" xmlns="http://www.w3.org/2000/svg" xmlns:xlink="http://www.w3.org/1999/xlink"><path d="M27.922,25.29c0.32,0.6,0.68,1.2,1.1,1.74l3.43,0.03c2.63-3.37,3.79-7.54,3.45-11.59l-0.01-0.04c0,0,0-0.04,0.04-0.05  c-0.07-0.59-0.13-1.15-0.23-1.69c-0.59-3.18-2.08-6.19-4.52-8.69C25.452,10.4,24.322,18.72,27.922,25.29z"/><path d="M9.392,32.106c-6.86,3.26-9.45,11.72-5.61,18.28l19.08,32.55c1.607,2.74,4.353,4.134,7.14,4.229V27.229  c-1.035,0.008-2.068,0.061-3.101,0.137c-0.023-0.145-0.042-0.291-0.069-0.435c-1.46-7.77-8.29-13.76-16.68-13.93  c-0.145,6.735,3.711,12.606,9.43,15.471c-3.258,0.758-6.458,1.861-9.54,3.325L9.392,32.106z M27.002,74h-2v-2h2V74z M25.002,40h2v2  h-2V40z M24.002,57h2v2h-2V57z M19.002,33h2v2h-2V33z M19.002,47h2v2h-2V47z M17.002,62h2v2h-2V62z M13.002,54h-2v-2h2V54z   M12.002,40h-2v-2h2V40z"/><path d="M70.626,13.321c0.948-5.441-1.812-10.466-6.165-11.225c-4.353-0.758-8.65,3.038-9.597,8.479  c-0.948,5.441,1.812,10.466,6.165,11.225c0.334,0.058,0.668,0.081,1,0.087l-0.98,5.627l-9.608,2.883  c-5.023,1.525-9.583,4.286-13.263,8.029l-3.175,3.231l18.181-5.519l6.718-2.039l-1.32,7.576L55.32,60.393l2.82-3.546  c3.267-4.109,5.451-8.971,6.352-14.143l1.803-10.547l6.108-1.854c0.046,0.329,0.109,0.657,0.208,0.982  c1.283,4.228,6.608,6.355,11.893,4.75c5.285-1.604,8.529-6.332,7.245-10.56c-1.283-4.228-6.608-6.355-11.893-4.75  c-1.745,0.53-3.261,1.404-4.471,2.485l-7.97,2.392l1.289-7.54C69.629,16.728,70.313,15.117,70.626,13.321z M81.287,24.471  c3.171-0.963,6.261-0.029,6.903,2.085c0.642,2.114-1.409,4.608-4.579,5.57s-6.261,0.029-6.903-2.085  C76.066,27.928,78.116,25.434,81.287,24.471z M63.608,32.625c-1.057,0.321-2.173-0.276-2.494-1.333  c-0.321-1.057,0.276-2.173,1.333-2.494c1.057-0.321,2.173,0.276,2.494,1.332C65.261,31.187,64.665,32.304,63.608,32.625z   M66.733,12.358c-0.569,3.265-2.794,5.604-4.97,5.224c-2.176-0.379-3.48-3.333-2.911-6.597c0.569-3.265,2.794-5.604,4.97-5.225  S67.302,9.093,66.733,12.358z"/><path d="M71.154,58.434c1.231-0.284,2.502-0.43,3.78-0.434l-0.006-2c-1.426,0.004-2.847,0.167-4.223,0.484L71.154,58.434z"/><path d="M59.68,82.403c-0.554-1.143-0.979-2.35-1.263-3.588l-1.949,0.447c0.317,1.385,0.792,2.735,1.412,4.014L59.68,82.403z"/><path d="M90.28,67.564c0.557,1.143,0.984,2.349,1.27,3.584l1.948-0.451c-0.319-1.382-0.797-2.731-1.42-4.01L90.28,67.564z"/><path d="M88.242,64.353l1.558-1.254c-0.889-1.105-1.904-2.112-3.017-2.994l-1.242,1.566C86.536,62.461,87.445,63.363,88.242,64.353z  "/><path d="M86.842,89.85l-1.249-1.562c-0.994,0.795-2.076,1.478-3.217,2.029l0.87,1.801C84.522,91.5,85.732,90.737,86.842,89.85z"/><path d="M92.112,83.241l-1.802-0.869c-0.551,1.143-1.232,2.227-2.026,3.222l1.563,1.248C90.735,85.729,91.497,84.518,92.112,83.241z  "/><path d="M75.007,94c1.423,0,2.845-0.16,4.226-0.476l-0.445-1.949C77.552,91.857,76.28,92,75.007,92V94z"/><path d="M93.988,74.98l-0.595-0.033L91.988,75c0,1.277-0.142,2.549-0.422,3.781l1.95,0.443  C93.829,77.848,93.988,76.426,93.988,74.98z"/><path d="M63.162,89.872l1.246-1.564c-0.993-0.79-1.9-1.694-2.697-2.688l-1.56,1.252C61.041,87.98,62.053,88.99,63.162,89.872z"/><path d="M66.764,92.132c1.28,0.616,2.632,1.088,4.018,1.401l0.441-1.951c-1.239-0.28-2.447-0.701-3.592-1.253L66.764,92.132z"/><path d="M60.103,63.19c-0.885,1.115-1.644,2.328-2.256,3.604l1.804,0.865c0.547-1.143,1.227-2.228,2.02-3.228L60.103,63.19z"/><path d="M78.718,58.41c1.24,0.277,2.449,0.696,3.595,1.245l0.863-1.805c-1.282-0.613-2.635-1.082-4.021-1.392L78.718,58.41z"/><path d="M56.451,70.813c-0.307,1.365-0.463,2.774-0.463,4.187v0.038l2-0.038c0-1.265,0.139-2.525,0.414-3.747L56.451,70.813z"/><path d="M66.693,57.901c-1.275,0.62-2.483,1.386-3.591,2.274l1.252,1.561c0.991-0.796,2.073-1.481,3.214-2.036L66.693,57.901z"/><polygon points="78.078,70.584 74.988,64 71.897,70.584 64.988,71.639 69.988,76.764 68.807,84 74.988,80.584 81.168,84   79.988,76.764 84.988,71.639 "/><path d="M43.514,48.083l-6.961,0.03c0.632,1.388,1.828,2.693,3.497,3.788C41.709,50.792,42.894,49.476,43.514,48.083z"/><path d="M40.037,54.268c-1.659,1.108-2.844,2.424-3.464,3.817l6.961-0.03C42.902,56.668,41.706,55.362,40.037,54.268z"/><path d="M43.978,60l-7.958,0.034C36.017,60.115,36,60.195,36,60.276l0.012,2.758l8-0.034L44,60.242  C44,60.161,43.982,60.081,43.978,60z"/><path d="M57.275,37.392c-0.064-0.111-0.135-0.219-0.203-0.328l-21.489,6.623c-0.875,0.265-1.818-0.088-2.296-0.868  c-0.477-0.78-0.364-1.785,0.274-2.44l3.161-3.244c2.86-2.935,6.254-5.315,9.967-7.024c-1.574-0.558-3.171-1.022-4.782-1.408  c5.466-2.748,9.246-8.257,9.354-14.698c-8.495-0.2-15.63,5.641-17.295,13.485c-0.677-0.045-1.355-0.079-2.033-0.095l0.255,59.816  c2.437-0.367,4.739-1.744,6.147-4.169L54.15,55.797L57.275,37.392z M44.11,66.081l-0.004-1l-8,0.034l0.013,3l-2,0.008l-0.033-7.758  c-0.011-2.659,1.495-5.245,4.176-7.26c-2.699-1.992-4.227-4.565-4.238-7.224l-0.003-0.758l2-0.008l0.003,0.758  c0,0.081,0.018,0.161,0.022,0.242l7.958-0.034c0.004-0.081,0.02-0.161,0.02-0.242l-0.016-3.758l2-0.008l0.016,3.758  c0.011,2.659-1.495,5.245-4.176,7.26c2.699,1.992,4.227,4.565,4.238,7.224l0.024,5.758L44.11,66.081z"/></svg>