<?xml version="1.0" ?><!-- Uploaded to: SVG Repo, www.svgrepo.com, Generator: SVG Repo Mixer Tools -->
<svg fill="#000000" width="800px" height="800px" viewBox="0 0 96 96" id="Layer_1_1_" version="1.1" xml:space="preserve" xmlns="http://www.w3.org/2000/svg" xmlns:xlink="http://www.w3.org/1999/xlink"><path d="M28,32.245V32c-5.894,0-10.761,4.342-11.61,10L15.61,42C14.761,36.343,9.894,32,4,32v0.245  c0,6.235,4.857,11.322,10.992,11.717L15,52.001l2-0.002l-0.008-8.037C23.134,43.575,28,38.485,28,32.245z"/><path d="M60,32.245V32c-5.894,0-10.761,4.342-11.61,10L47.61,42C46.761,36.343,41.894,32,36,32v0.245  c0,6.235,4.857,11.322,10.992,11.717L47,52.001l2-0.002l-0.008-8.037C55.134,43.575,60,38.485,60,32.245z"/><path d="M92,32.245V32c-5.894,0-10.761,4.342-11.61,10L79.61,42C78.761,36.343,73.894,32,68,32v0.245  c0,6.235,4.857,11.322,10.992,11.717L79,52.001l2-0.002l-0.008-8.037C87.134,43.575,92,38.485,92,32.245z"/><path d="M89,62c0,1.104-0.896,2-2,2H73c-1.104,0-2-0.896-2-2v-2.399c-1.045,0.184-2.297,0.309-4.01,0.309  c-5.297,0-6.284-1.211-9.99-1.653V62c0,1.104-0.896,2-2,2H41c-1.104,0-2-0.896-2-2v-2.159c-4.587-0.327-5.255-1.751-11.01-1.751  c-1.188,0-2.156,0.061-2.99,0.16V62c0,1.104-0.896,2-2,2H9c-1.104,0-2-0.896-2-2v-3.395c-1.242-0.291-2.721-0.515-5-0.515V94h92  V59.91c-1.704,0-3.956-0.125-5-0.308V62z M5,87c-1.105,0-2-0.895-2-2c0-1.105,0.895-2,2-2s2,0.895,2,2C7,86.105,6.105,87,5,87z   M11.897,81.495l-1.727,1.01c-0.921-1.576-1.301-3.131-1.13-4.619c0.073-0.631,0.216-0.992,0.434-1.537  c0.146-0.364,0.342-0.859,0.611-1.665c0.629-1.884,0.915-2.741,0.949-3.719c0.041-1.135-0.257-2.312-0.884-3.497l1.768-0.936  c0.793,1.5,1.168,3.015,1.116,4.503c-0.045,1.267-0.402,2.336-1.049,4.277c-0.288,0.861-0.498,1.388-0.652,1.776  c-0.196,0.492-0.263,0.658-0.305,1.025C10.906,79.163,11.199,80.301,11.897,81.495z M15.859,81.496l-1.727,1.008  c-0.921-1.576-1.301-3.13-1.13-4.618c0.073-0.631,0.216-0.992,0.434-1.537c0.146-0.364,0.342-0.859,0.611-1.665  c0.609-1.823,0.915-2.738,0.949-3.719c0.041-1.135-0.257-2.312-0.884-3.497l1.768-0.936c0.793,1.5,1.168,3.015,1.116,4.503  c-0.045,1.27-0.402,2.339-1.051,4.281c-0.287,0.857-0.496,1.384-0.65,1.772c-0.196,0.492-0.263,0.658-0.305,1.025  C14.869,79.163,15.161,80.301,15.859,81.496z M19.95,75.312c-0.288,0.861-0.498,1.388-0.652,1.776  c-0.196,0.492-0.263,0.658-0.305,1.025c-0.121,1.049,0.171,2.187,0.87,3.381l-1.727,1.01c-0.922-1.577-1.302-3.132-1.13-4.619  c0.072-0.631,0.216-0.992,0.433-1.537c0.146-0.364,0.342-0.859,0.611-1.665C18.68,72.8,18.966,71.942,19,70.965  c0.041-1.135-0.257-2.312-0.885-3.497l1.768-0.936c0.793,1.5,1.168,3.015,1.116,4.503C20.955,72.302,20.598,73.371,19.95,75.312z   M33,87c-1.105,0-2-0.895-2-2c0-1.105,0.895-2,2-2s2,0.895,2,2C35,86.105,34.105,87,33,87z M43.897,81.495l-1.727,1.01  c-0.921-1.576-1.301-3.131-1.13-4.619c0.073-0.631,0.216-0.992,0.434-1.537c0.146-0.364,0.342-0.859,0.611-1.665  c0.629-1.884,0.915-2.741,0.949-3.719c0.041-1.135-0.257-2.312-0.884-3.497l1.768-0.936c0.793,1.5,1.168,3.015,1.116,4.503  c-0.045,1.267-0.402,2.336-1.049,4.277c-0.288,0.861-0.498,1.388-0.652,1.776c-0.196,0.492-0.263,0.658-0.305,1.025  C42.906,79.163,43.199,80.301,43.897,81.495z M47.859,81.496l-1.727,1.008c-0.921-1.576-1.301-3.13-1.13-4.618  c0.073-0.631,0.216-0.992,0.434-1.537c0.146-0.364,0.342-0.859,0.611-1.665c0.609-1.823,0.915-2.738,0.949-3.719  c0.041-1.135-0.257-2.312-0.884-3.497l1.768-0.936c0.793,1.5,1.168,3.015,1.116,4.503c-0.045,1.27-0.402,2.339-1.051,4.281  c-0.287,0.857-0.496,1.384-0.65,1.772c-0.196,0.492-0.263,0.658-0.305,1.025C46.869,79.163,47.161,80.301,47.859,81.496z   M51.95,75.312c-0.288,0.861-0.498,1.388-0.652,1.776c-0.196,0.492-0.263,0.658-0.305,1.025c-0.121,1.049,0.171,2.187,0.87,3.381  l-1.727,1.01c-0.922-1.577-1.302-3.132-1.13-4.619c0.072-0.631,0.216-0.992,0.433-1.537c0.146-0.364,0.342-0.859,0.611-1.665  C50.68,72.8,50.966,71.942,51,70.965c0.041-1.135-0.257-2.312-0.885-3.497l1.768-0.936c0.793,1.5,1.168,3.015,1.116,4.503  C52.955,72.302,52.598,73.371,51.95,75.312z M62,73c-1.105,0-2-0.895-2-2c0-1.105,0.895-2,2-2s2,0.895,2,2  C64,72.105,63.105,73,62,73z M75.897,81.495l-1.727,1.01c-0.921-1.576-1.301-3.131-1.13-4.619c0.073-0.631,0.216-0.992,0.434-1.537  c0.146-0.364,0.342-0.859,0.611-1.665c0.629-1.884,0.915-2.741,0.949-3.719c0.041-1.135-0.257-2.312-0.884-3.497l1.768-0.936  c0.793,1.5,1.168,3.015,1.116,4.503c-0.045,1.267-0.402,2.336-1.049,4.277c-0.288,0.861-0.498,1.388-0.652,1.776  c-0.196,0.492-0.263,0.658-0.305,1.025C74.906,79.163,75.199,80.301,75.897,81.495z M79.859,81.496l-1.727,1.008  c-0.921-1.576-1.301-3.13-1.13-4.618c0.073-0.631,0.216-0.992,0.434-1.537c0.146-0.364,0.342-0.859,0.611-1.665  c0.609-1.823,0.915-2.738,0.949-3.719c0.041-1.135-0.257-2.312-0.884-3.497l1.768-0.936c0.793,1.5,1.168,3.015,1.116,4.503  c-0.045,1.27-0.402,2.339-1.051,4.281c-0.287,0.857-0.496,1.384-0.65,1.772c-0.196,0.492-0.263,0.658-0.305,1.025  C78.869,79.163,79.161,80.301,79.859,81.496z M83.863,81.495l-1.727,1.01c-0.922-1.577-1.302-3.132-1.13-4.619  c0.072-0.631,0.216-0.992,0.433-1.537c0.146-0.364,0.342-0.859,0.611-1.665C82.68,72.8,82.966,71.942,83,70.965  c0.041-1.135-0.257-2.312-0.885-3.497l1.768-0.936c0.793,1.5,1.168,3.015,1.116,4.503c-0.045,1.267-0.402,2.336-1.049,4.277  c-0.288,0.861-0.498,1.388-0.652,1.776c-0.196,0.492-0.263,0.658-0.305,1.025C82.873,79.163,83.165,80.301,83.863,81.495z M86,86  c-1.105,0-2-0.895-2-2c0-1.105,0.895-2,2-2s2,0.895,2,2C88,85.105,87.105,86,86,86z"/><circle cx="48" cy="13" r="6"/><rect height="3" width="2" x="47" y="2"/><rect height="3" width="2" x="47" y="21"/><rect height="2" width="3" x="56" y="12"/><rect height="2" width="3" x="37" y="12"/><rect height="2" transform="matrix(0.7071 -0.7071 0.7071 0.7071 11.5842 40.5312)" width="3" x="53.218" y="5.282"/><rect height="2" transform="matrix(0.7072 -0.707 0.707 0.7072 -1.853 34.9614)" width="3" x="39.782" y="18.718"/><rect height="3" transform="matrix(0.7071 -0.7071 0.7071 0.7071 2.0838 44.4663)" width="2" x="53.718" y="18.218"/><rect height="3" transform="matrix(0.707 -0.7072 0.7072 0.707 7.652 31.035)" width="2" x="40.283" y="4.782"/><path d="M41,62h14v-8H41V62z M49,57h2v2h-2V57z M44,56h2v2h-2V56z"/><path d="M9,62h14v-8H9V62z M17,57h2v2h-2V57z M12,56h2v2h-2V56z"/><path d="M73,62h14v-8H73V62z M81,57h2v2h-2V57z M76,56h2v2h-2V56z"/></svg>